# xmcd
#
# Track frame offsets: 
#        150
#        19595
#        38458
#        56034
#        67957
#        71621
#        94347
#        113649
#        131257
#        145575
#        162506
#        183289
#        201942
#        221137
#        238356
#
# Disc length: 3422 seconds
#
# Revision: 0
# Processed by: cddbd v1.5.2PL0 Copyright (c) Steve Scherf et al.
# Submitted via: ExactAudioCopy v1.0b4
#
DISCID=d60d5c0f
DTITLE=Van Wilks - Bombay Tears
DYEAR=2016
DGENRE=Blues
TTITLE0=Danger In The Dark
TTITLE1=1959
TTITLE2=Travelin'
TTITLE3=Juvenile Licks
TTITLE4=De La Coupole La Mer Pleure
TTITLE5=Bombay Tears
TTITLE6=Can't Cry Anymore
TTITLE7=Sirens In The Night
TTITLE8=Eyes Like Lightning
TTITLE9=Older Than You Know
TTITLE10=Livivng On Borrowed Time
TTITLE11=Boystown (Bonus Track)
TTITLE12=Street Legal (Bonus Track)
TTITLE13=Never Say No (Bonus Track)
TTITLE14=Small Town Girl (Bonus Track)
EXTD=
EXTT0=
EXTT1=
EXTT2=
EXTT3=
EXTT4=
EXTT5=
EXTT6=
EXTT7=
EXTT8=
EXTT9=
EXTT10=
EXTT11=
EXTT12=
EXTT13=
EXTT14=
PLAYORDER=
